<?xml version="1.0" encoding="UTF-8"?>
<!DOCTYPE svg PUBLIC "-//W3C//DTD SVG 1.1//EN" "http://www.w3.org/Graphics/SVG/1.1/DTD/svg11.dtd">
<!-- Creator: CorelDRAW X7 -->
<svg xmlns="http://www.w3.org/2000/svg" xml:space="preserve" width="84.6681mm" height="84.668mm" version="1.1" style="shape-rendering:geometricPrecision; text-rendering:geometricPrecision; image-rendering:optimizeQuality; fill-rule:evenodd; clip-rule:evenodd"
viewBox="0 0 84969 84969"
 xmlns:xlink="http://www.w3.org/1999/xlink">
 <defs>
  <style type="text/css">
   <![CDATA[
    .str0 {stroke:#2B2A29;stroke-width:76.471}
    .fil0 {fill:#FEFEFE}
    .fil3 {fill:#01A75A}
    .fil2 {fill:#343334}
    .fil4 {fill:#9B9B9B}
    .fil1 {fill:#CA363D}
    .fil5 {fill:white}
    .fil6 {fill:#2B2A29;fill-rule:nonzero}
   ]]>
  </style>
 </defs>
 <g id="Layer_x0020_1">
  <metadata id="CorelCorpID_0Corel-Layer"/>
  <g id="_2608791386816">
   <circle class="fil0 str0" cx="42485" cy="42485" r="40441"/>
   <g>
    <path class="fil1" d="M52431 55383l-246 148c-1306,497 -2044,310 -3180,183 -474,-53 -921,37 -1310,0 -169,-16 -1538,-741 -1849,-883 -600,-272 -1259,-545 -1839,-794 -5769,-2480 -7619,-1429 -12706,402 -1389,500 -2741,764 -4281,1073 -1562,314 -2991,580 -4615,728 -1303,118 -3550,233 -4658,617 176,249 1076,723 1412,919 5295,3086 17301,10196 23236,8370 420,-129 1430,64 2098,-17 3878,-469 9831,-3918 12550,-5815 1698,-1183 3634,-2449 5681,-3469 2024,-1008 4560,-1607 6462,-2696 -3,-630 -950,-1657 -1266,-1915 -439,-358 -1396,-863 -1992,-1112 -1758,-735 -3515,-603 -5215,60 -2175,849 -7377,4177 -8282,4201z"/>
    <path class="fil1" d="M55915 52309c591,-116 2574,-1094 3135,-1387 1432,-749 1646,-640 2319,-2190 2521,-5817 -730,-18059 1209,-23930 96,-290 241,-561 310,-834 -329,-299 -1160,-645 -1687,-779 -1893,-483 -2457,685 -3116,1779 -1064,1769 -1160,4280 -1217,6371 -47,1742 -375,2973 -501,4575 -260,3293 1532,3283 1728,8382 89,2315 -439,4293 -1310,6297 -244,560 -701,1237 -870,1716z"/>
    <path class="fil1" d="M51843 33356c184,202 1231,802 1759,1232 534,434 914,1081 1622,1410 1036,-1444 41,-8729 1862,-11641 1063,-1700 804,-1301 2407,-2173 70,-523 -317,-2181 -469,-2711 -141,-493 -275,-715 -855,-759 -1154,-88 -2577,763 -3143,1644 -1822,2838 -2048,3571 -2292,7412 -63,996 -142,2034 -258,2963 -151,1214 -310,1636 -633,2623z"/>
    <path class="fil1" d="M47213 31416c282,169 3072,1172 3451,1185 1711,-3989 -76,-6448 2956,-12098 435,-811 616,-743 532,-1817 -70,-891 -1,-1602 -1001,-1511 -599,55 -1377,445 -1738,732 -498,394 -702,848 -1088,1472 -766,1240 -1160,1870 -1544,3507 -330,1403 -493,2884 -691,4346 -96,712 -194,1443 -333,2155 -125,642 -490,1578 -544,2029z"/>
    <path class="fil2" d="M72939 22830c684,81 562,277 439,912 -324,-171 -472,-375 -439,-912zm-9507 -7389c312,-169 1110,24 1409,148 501,209 643,443 629,1124 -541,-97 -1496,-1036 -2038,-1272zm-3553 -2269c855,45 456,153 1256,-178 -90,538 -388,1095 -336,1664 1,2 4530,3057 4932,3461 257,258 287,434 815,439 -37,520 124,489 461,843 300,314 353,564 865,604 -52,402 122,460 329,682 176,189 291,384 651,351 -98,217 -168,89 294,644 160,192 388,464 489,657l624 4 -258 375c197,355 608,745 1069,1385l1067 1427c986,-212 2183,-1285 2190,-2415 -383,-672 -1502,-763 -2204,-420 -264,1293 700,1299 1020,1428 -47,304 -276,519 -463,646 -182,-120 -468,-558 -633,-787 -290,-401 -698,-1070 -1068,-1393 181,-398 1927,-1893 2437,-2465l-1023 4 -1807 1886c-94,-54 -37,0 -127,-92 -50,-51 -97,-119 -139,-170l-799 -1042c290,-377 592,-529 840,-860 -896,-37 -881,134 -1172,501 -281,-204 -420,-323 -539,-588 175,-107 657,-383 842,-528 -504,-212 -1035,192 -1156,256 -133,-83 -38,-11 -147,-109 -336,-301 -619,-581 -826,-1000 293,-219 738,-257 956,-589 -1261,59 -764,164 -1302,305l-1030 -957c210,-177 579,-151 370,-974 -91,-357 -212,-717 -542,-854 -605,-251 -1825,-323 -2534,-352 188,-342 358,-312 566,-601 186,-259 291,-487 397,-788 407,39 692,-57 904,-311 -171,-348 -351,-679 -307,-1185 -1072,171 -704,443 -968,994l-586 1195c-326,685 -342,928 -1828,-239 -45,-483 363,-1403 461,-1960 -377,156 -822,522 -1257,418 -623,-148 -540,-568 -707,-933 -295,146 -449,304 -703,447 -23,357 56,1416 -209,1605 -678,234 -2067,-344 -2385,-687 -671,-722 136,-1243 544,-1625 234,-220 105,-32 246,-310 -601,153 -1278,745 -1527,1122 -183,275 -330,671 -215,1060 115,389 356,476 661,663 597,366 1225,584 2041,525 800,-57 1047,-696 1470,-1179z"/>
    <path class="fil1" d="M43145 31207l3001 321 2243 -10363c-1283,-305 -2204,-140 -2748,823 -1880,3326 -1351,4888 -2012,7696 -141,601 -332,974 -484,1523z"/>
    <path class="fil2" d="M78233 39405c7,-278 126,-749 266,-938 187,206 273,293 239,630l-505 308zm-3225 -6416c-98,-98 -24,58 -139,-195 -167,-368 -114,-1190 372,-1383 286,463 209,1274 -233,1578zm2436 -781c-451,85 -622,150 -892,-164 -184,-213 -354,-435 -373,-675 270,74 496,195 719,332 625,384 464,273 546,507zm-4126 -4904c-78,489 659,1443 823,1941l647 32c19,83 218,-57 -83,277 -89,99 -124,106 -225,233l475 1233c-97,81 -34,48 -199,145 -460,273 -939,691 -767,1412 166,691 953,756 1717,817 341,394 400,1183 541,1734l519 174c-99,116 -234,267 -360,382 47,909 302,810 382,1478 28,237 48,381 99,604 234,129 477,221 652,349l-336 1694c1166,419 767,522 2113,-124 242,-116 135,-40 302,-200 -104,-1037 -962,-1452 -1873,-1729 -107,-538 -68,-1095 -245,-1387 -129,-213 -88,-12 -162,-403 455,42 656,343 1014,-44 468,-508 315,-1343 -106,-1770 -190,-194 -594,-266 -893,-308 66,505 134,770 -250,1038 -216,-438 -294,-1483 -478,-1815 -145,-261 -165,-247 -249,-608 597,96 1434,241 1890,-112 -235,-600 -1531,-1182 -2410,-1292 -486,-1747 -816,-952 815,-2475 205,-192 290,-177 439,-417l-942 7c-168,187 -333,304 -510,483 -264,268 -174,306 -572,422 -227,-313 -836,-1408 -848,-1771 329,-328 308,-106 547,-406 -458,16 -1114,201 -1467,406z"/>
    <path class="fil2" d="M12862 23902c500,-45 750,-41 1152,132 -143,338 -681,1122 -955,1452 -783,941 -740,79 -1549,-174 243,1042 338,662 874,1216 -164,653 -807,1145 -983,1803l-559 -382c-300,298 -275,732 -1430,1879 -1021,1014 -582,1512 -1,2181 19,-732 128,-1059 884,-1743 122,739 -65,1111 -302,1694 -793,1940 -360,1428 -1850,1037 237,661 533,748 1162,961 -107,667 -219,941 -464,1441 -163,333 0,413 -367,543 -378,133 -465,8 -803,203 -182,1097 1341,1370 1280,2391 -457,342 -1051,111 -1388,344 467,156 2118,437 2332,-171 140,-396 -644,-957 -1138,-1478 -188,-198 -266,-349 -234,-694 388,-202 1293,1 1547,-2095l-367 -398c732,-514 364,270 1242,-2140 340,-932 -425,-1668 443,-2861l615 92c400,-963 132,-355 516,-1011 156,-267 413,-681 525,-975l-270 -501c479,-46 509,46 765,-298 177,-238 308,-384 487,-676 282,-460 621,-911 875,-1396 -520,-807 -1053,-1263 -2448,-1232 45,279 242,655 409,856z"/>
    <path class="fil2" d="M46712 51735c680,435 1152,580 1998,857 703,231 1628,935 2123,271l1098 -1779c376,-619 761,-1179 904,-2056 -499,-310 -1697,-778 -2343,-1090 -300,-146 -435,-313 -699,-436 -184,168 -795,1339 -996,1696 -159,280 -1971,2262 -2085,2537z"/>
    <path class="fil3" d="M33953 41270c87,227 1043,1329 1252,1554 274,296 385,447 651,742l499 591c175,179 102,99 248,175 279,-204 1257,-1583 1551,-1981 297,-402 1333,-1681 1471,-2012 -344,-384 -864,-859 -1262,-1218 -393,-354 -906,-980 -1372,-1217 -295,159 -2775,2957 -3038,3366z"/>
    <path class="fil3" d="M34431 49806c219,-279 1607,-4015 1582,-4192 -232,-553 -2063,-2729 -2513,-3046 -391,346 -779,1321 -943,1800 -173,506 -560,1672 -527,2253 33,606 1308,1867 1759,2427 222,277 442,576 642,758z"/>
    <path class="fil3" d="M38058 37235c159,226 2071,2011 2347,2177l4194 -3263 -1545 -1340c-807,20 -2059,661 -2713,960 -469,215 -2044,958 -2283,1466z"/>
    <path class="fil2" d="M50488 46618l2702 1329c382,-713 706,-2753 778,-3658 46,-575 171,-1587 -200,-1956 -89,-89 -1266,-783 -1415,-835 -223,386 -1821,4763 -1865,5120z"/>
    <path class="fil2" d="M51034 9967l-1544 -344 -295 -2256c-134,51 -140,82 -337,387 -82,126 -193,261 -194,434 -1,467 187,753 115,1333 -381,-19 -1740,-143 -1967,-351 -99,-177 122,-387 -45,-636 -202,296 -540,1113 -428,1511l2086 318c120,-258 152,-383 428,-510 191,817 75,542 967,746 946,216 553,222 1247,-175 -35,687 282,517 942,633 495,87 850,313 1389,298 285,-893 303,-175 510,-1660 90,-642 17,-721 925,-1231 -114,-198 -291,-378 -458,-561 -262,-284 -305,-127 -330,-661 -340,195 -467,427 -755,658 252,694 226,50 132,1329 -37,494 -92,827 -187,1251l-1545 -424 426 -3340c-1562,656 -535,2008 -1082,3251z"/>
    <path class="fil2" d="M22408 15511c-80,66 -144,127 -257,214 -152,116 -136,107 -289,174 -231,-222 -355,-635 -482,-925 -290,600 -53,913 92,1332 -239,200 -644,621 -1073,662 -112,-315 -164,-691 -399,-934 -278,671 73,1173 52,1262l-1123 992c-465,24 -360,-23 -599,-324 -147,-184 -365,-370 -497,-453 88,1168 174,650 560,1337 -874,1229 -1164,1015 -2234,810l225 855 1007 155c228,759 144,2190 -376,2565 -67,48 -258,133 -359,180 -312,145 -216,73 -343,286 563,-59 1674,-497 1891,-905 346,-648 -41,-1698 -321,-2240 412,-226 730,-619 992,-931l-144 -551c681,145 706,11 1063,-352 291,-294 611,-369 669,-905 578,117 1451,-592 1492,-1074 429,24 901,-387 1174,-687 -88,-407 -179,-767 -380,-1043l-685 -765c-175,1184 76,896 344,1265z"/>
    <path class="fil3" d="M35865 34701c127,313 356,548 586,820 243,288 433,481 695,688 440,-51 1857,-993 2357,-1273 612,-342 1250,-519 1903,-810 280,-124 426,-146 594,-382 -254,-383 -171,-70 -538,-593 -618,-881 -1590,-434 -2551,-44 -1245,505 -2290,1262 -3046,1594z"/>
    <path class="fil2" d="M54497 48408c271,232 1266,560 1658,699 926,-926 476,-4074 513,-5498 -225,-141 -1248,-641 -1512,-684 -157,880 -40,1948 -183,2831 -111,684 -534,2011 -476,2652z"/>
    <path class="fil2" d="M51844 53572c423,252 1053,484 1632,379 832,-151 1612,-1578 1915,-2272l602 -1487 -1974 -696c-839,1993 -699,1556 -1592,3099 -180,311 -451,653 -583,977z"/>
    <path class="fil3" d="M33221 40223c257,-101 85,7 253,-143 2,-1 142,-165 181,-205l1904 -1977c206,-206 587,-595 740,-818 -75,-173 -1154,-1415 -1403,-1566 -213,109 -346,256 -510,434 -476,518 -2218,2058 -1879,2980 193,526 512,876 714,1295z"/>
    <path class="fil2" d="M25280 13235l373 259c-167,183 -318,270 -603,371l230 -630zm-1063 -2225c516,295 675,636 778,1372 -878,-316 -1915,-878 -3056,-658 -78,649 163,925 350,1255l1280 12c9,-9 21,-65 27,-52l128 -230c525,61 766,213 1201,305 -43,359 -175,606 -317,897 -209,427 -318,368 -771,225 88,423 303,760 489,996 387,20 1730,-822 2132,-1095 -57,-743 -578,-1093 -1017,-1390 28,-582 -17,-900 -212,-1403 16,-16 44,-58 52,-44 7,14 39,-32 48,-45 76,-98 91,79 141,-370 24,-226 27,-416 -27,-573 -228,-58 -385,-17 -637,-40 -360,-32 -282,-79 -515,-241l-74 1079z"/>
    <path class="fil2" d="M35672 10701c546,-43 1815,-244 2172,-572 128,83 133,167 388,190 425,40 1161,-99 1474,-396 182,185 211,154 563,103 265,-37 512,-70 770,-90 65,-403 208,-566 174,-1019 -26,-348 -61,-834 -188,-1090l-494 691 170 581 -725 49 -48 -961c-524,480 -396,835 -506,1076 -389,133 -736,172 -1208,120l173 -1066c-225,117 -167,4 -480,508 -73,116 -73,128 -101,264 -22,106 14,75 -31,205 -137,401 -1338,424 -1715,393 -312,-408 -948,-2539 -1139,-3184 -245,197 -453,605 -355,949l1106 3249z"/>
    <path class="fil2" d="M44253 53994c79,62 17,42 211,138 50,25 100,39 163,64l1089 468c2271,1049 1930,1275 2822,558 265,-213 880,-798 996,-1064 -555,-240 -3216,-1411 -3621,-1449l-1490 1109c-13,11 -34,27 -45,37 -12,11 -34,33 -43,42l-82 97z"/>
    <path class="fil3" d="M32929 53626c1257,-77 1053,-547 1160,-1299 56,-394 117,-744 118,-1145l-1191 -1359c-179,-218 -396,-479 -574,-672 -139,-149 -186,-190 -289,-327 -192,-255 -104,-232 -383,-362 -304,1566 -181,2675 510,4113 213,443 488,713 649,1051z"/>
    <path class="fil1" d="M50210 76930c187,1074 1266,1411 2369,1037 859,-291 1519,-1423 682,-2153 -733,-639 -2524,-8 -2726,-755 -219,-814 1653,-1437 1947,-291l580 -129c-161,-1480 -2781,-1217 -3082,21 -504,2078 2809,862 3069,1911 21,617 -453,897 -1029,966 -969,116 -1074,-349 -1301,-695l-509 88z"/>
    <path class="fil1" d="M71150 60728c-1183,-462 -1997,290 -2276,1182 -373,1192 694,1967 1701,1305 355,-234 688,-554 1040,-818 972,-732 1642,482 576,1428 -429,381 -708,366 -1313,194l-219 449c1211,1026 3114,-951 2491,-2252 -334,-699 -1096,-831 -1827,-347 -304,202 -510,398 -777,622 -367,309 -450,435 -994,341 -351,-499 -260,-813 134,-1285 485,-580 596,-361 1286,-335l178 -484z"/>
    <path class="fil3" d="M31095 45050l1622 -3622c-118,-252 -882,-1434 -1079,-1621 -633,596 -1943,4302 -543,5243z"/>
    <path class="fil1" d="M64494 68830c968,-538 2218,1311 1185,1897 -615,349 -1105,-189 -1347,-543 -373,-549 -421,-1029 162,-1354zm708 3141c610,1210 2819,-291 2034,-1591 -168,-280 -1709,-2429 -2081,-2607 -331,208 -358,171 -220,502 -2426,124 -1282,3237 456,3060 857,-87 973,-767 1083,-1022 905,791 122,1889 -854,1465l-418 193z"/>
    <path class="fil1" d="M10231 49028l1452 -342c122,819 725,1967 -232,2206 -1047,261 -1224,-1440 -1220,-1864zm-2366 -80l82 571 1740 -377c184,1245 557,2925 2140,2272 1301,-537 412,-2178 247,-3396l-4209 930z"/>
    <path class="fil1" d="M74256 55778c-375,-1329 2057,-1140 2262,-35 249,1335 -1997,975 -2262,35zm2792 -271c119,-26 26,16 145,-34l115 -449c-907,-225 -3377,-1449 -4022,-1519l-131 475 1293 557c-412,304 -841,586 -680,1390 345,1735 3965,1569 3121,-381l75 -27c7,-2 32,-5 41,-7 8,-2 35,-3 43,-5z"/>
    <path class="fil2" d="M33453 9353c271,204 528,337 576,728 -704,203 -1557,507 -2241,764 -746,280 -1331,379 -1513,-413 -70,-306 -5,-380 -189,-617l-123 417c-5,132 14,338 28,472 25,235 78,575 169,779 505,1135 2398,-123 4274,-615 140,-1311 78,-1780 -779,-2356l-132 421c-32,159 -55,263 -70,420z"/>
    <path class="fil1" d="M59025 73804c676,753 -177,1726 -831,1520 -506,-159 -267,-676 62,-920 282,-211 533,-384 769,-600zm-2178 237c992,-32 102,-429 878,-940 478,-315 935,-309 1079,289 -475,458 -1885,1018 -1350,2041 415,794 1726,455 2125,-572 360,152 455,313 778,-98 -994,-800 -969,-3398 -2915,-2024 -437,309 -658,523 -595,1304z"/>
    <path class="fil1" d="M10754 54149c-1162,817 -2206,-1396 -750,-1228 230,313 535,843 750,1228zm1355 24c396,-490 35,-2356 -1334,-2172l97 493c551,88 685,153 834,638 157,512 16,761 -473,865 -523,-527 -689,-1980 -1802,-1644 -952,286 -722,1742 192,2172l-228 326 165 501c566,-520 2175,-715 2549,-1179z"/>
    <path class="fil1" d="M49426 38399c308,208 1820,1109 2063,1160l228 -4222c-468,191 -967,1094 -1257,1482 -197,262 -1024,1264 -1034,1580z"/>
    <path class="fil1" d="M12762 56719c758,185 910,1358 95,1550 -137,-312 -268,-601 -445,-957 -195,-392 -377,-771 350,-593zm-573 2510c64,-189 107,239 32,-240 -48,-307 -238,-297 -369,-319 -1116,-191 -858,-1457 -154,-1672l293 500c90,191 159,341 247,528 153,324 342,686 470,1004 2085,-692 1111,-3389 -773,-2786 -2358,754 -1128,3333 254,2985z"/>
    <path class="fil1" d="M61738 71817c-506,-1064 857,-1779 1407,-910 -174,237 -1067,776 -1407,910zm260 487c197,-272 638,-441 952,-648 275,-180 776,-434 949,-671 -805,-1748 -3509,-794 -2669,1126 300,687 847,1330 1828,1135 741,-148 1324,-807 1121,-1782l-470 167c-72,561 -58,937 -597,1105 -596,185 -859,-180 -1114,-432z"/>
    <path class="fil1" d="M76284 52162c-397,-125 -804,-404 -678,-991 101,-467 465,-701 1050,-664l-372 1655zm1380 -1954l-149 449c226,331 655,523 355,1162 -192,408 -567,578 -1115,494l480 -2291c-1008,-105 -1701,-60 -2022,844 -681,1918 2316,2721 3021,1307 174,-350 270,-808 144,-1240 -101,-350 -400,-683 -714,-725z"/>
    <path class="fil1" d="M20077 67851c-171,-99 -507,-397 -657,-554 -242,-253 -479,-358 -497,-657 602,-574 1961,243 1154,1211zm-507 696c-634,123 -930,212 -1257,-298 -287,-448 -57,-829 109,-1163 598,226 1246,1306 1811,1490 1505,-1583 -250,-3408 -1852,-2236 -489,358 -1080,1309 -513,2119 340,487 1180,1091 1970,494l-268 -406z"/>
    <path class="fil1" d="M37589 76671c64,-892 1690,-1185 1670,225l-1670 -225zm1652 1092c-231,169 -161,233 -421,400 -339,219 -1305,305 -1325,-1021l2312 235c293,-2269 -2297,-2565 -2803,-788 -690,2424 2378,2748 2685,1279l-448 -105z"/>
    <path class="fil1" d="M46523 36227c205,248 1623,1315 1951,1367 299,-387 1884,-2459 1972,-2884 -579,87 -2614,968 -3458,1275l-465 242z"/>
    <path class="fil1" d="M44466 76422c1331,-767 1783,1644 797,2136 -1179,589 -1821,-1547 -797,-2136zm-1025 1391c237,1953 3296,1694 2890,-728 -138,-831 -786,-1423 -1764,-1237 -897,170 -1253,922 -1126,1965z"/>
    <path class="fil1" d="M78111 47800c739,40 777,1285 -300,1463l-13 520c1419,11 1605,-1867 870,-2397 -1332,-962 -1331,1520 -2286,1502 -541,-933 334,-1234 499,-1334l28 -482c-1421,89 -1313,1846 -776,2228 848,602 1322,-403 1586,-980 157,-345 96,-344 392,-520z"/>
    <path class="fil1" d="M26533 72216c285,-259 469,-216 800,-27 375,213 314,263 386,780 287,104 183,120 493,120 194,-1410 -1476,-1798 -1985,-1310 -915,877 648,1678 896,2232 42,596 -1428,607 -1314,-701l-511 -135c-335,1558 1456,1968 2064,1526 1188,-865 -801,-1740 -829,-2485z"/>
    <path class="fil1" d="M12529 59616c-787,286 -578,1260 -191,1804 497,698 1279,691 1656,223 469,-583 -389,-1759 -77,-2172 255,-340 665,183 746,326 243,431 59,494 -75,870l291 339c883,-570 101,-2130 -776,-2138 -1550,-13 -335,2025 -617,2421 -338,362 -708,8 -869,-298 -293,-556 -35,-617 124,-1023 -78,-130 -145,-202 -212,-352z"/>
    <path class="fil1" d="M17521 63829c119,-130 139,-209 155,-390l-216 -216c-387,181 -1319,1106 -1797,1487 -186,148 -411,368 -569,534 78,172 39,210 328,381 364,-225 815,-659 1176,-986 340,-308 936,-729 1425,-133 695,850 -1302,1591 -1608,2289 122,227 111,213 326,338 321,-188 1536,-1245 1766,-1520 658,-787 -60,-1690 -986,-1784z"/>
    <path class="fil1" d="M24411 73609c237,-387 1287,-1908 1323,-2325 103,-1197 -1392,-1136 -1392,-1136 -381,-98 323,-300 -463,-480 -235,256 -1523,2341 -1620,2633l379 229c260,-167 813,-1174 1007,-1470 409,-623 1071,-737 1465,-75 159,433 -873,1901 -1148,2298 117,172 126,228 449,326z"/>
    <path class="fil1" d="M76094 58261c-150,-199 -392,-272 -668,-419 -538,-285 -1562,-883 -2047,-1054 -193,192 -181,208 -259,492 301,88 1086,532 1392,702 432,241 972,568 621,1259 -481,946 -1964,-548 -2768,-683l-158 478c1320,607 2367,1722 3187,696 318,-399 252,-685 185,-1219 431,146 374,170 515,-252z"/>
    <path class="fil1" d="M34819 74808c-399,792 -267,2618 -1475,2400 -999,-180 -156,-1553 38,-2844l-503 -54c-127,245 -115,376 -175,595 -54,199 -114,373 -160,549 -99,376 -271,841 -275,1196 -10,965 994,1186 1774,851l29 110c68,221 -3,284 456,307l780 -3011 -489 -99z"/>
    <path class="fil1" d="M68810 65399c-302,-317 -750,-317 -1100,-162 -900,398 -1281,1620 -221,2561 1252,1112 2359,160 2493,-616 51,-292 -7,-630 -158,-864 -119,-183 -59,-85 -177,-180l-348 215c122,566 462,967 -213,1340 -500,277 -976,-115 -1227,-343 -253,-231 -693,-698 -430,-1228 271,-545 604,-457 1137,-345l244 -378z"/>
    <path class="fil1" d="M42418 32438c125,342 708,864 921,1156 288,-246 403,-191 942,-235l2864 -236c391,-35 331,-24 507,-155 -1291,-228 -2541,-646 -3989,-643 -216,0 -1171,10 -1245,113z"/>
    <path class="fil2" d="M44552 8606c303,525 1362,863 296,1728 -1599,1297 -1346,683 -2491,542 106,353 1079,667 1445,770 1771,499 2614,-3046 1103,-3809 -196,196 -245,497 -353,769z"/>
    <path class="fil1" d="M43485 74667c-1240,-175 -1252,114 -1353,1168l-473 55 37 401 431 17 -39 2698 544 -37 50 -2640 593 -18 -11 -416 -577 -44c-5,-386 -4,-409 128,-664 334,-77 429,2 674,-167l-4 -353z"/>
    <path class="fil1" d="M60179 71807l418 -259 -150 -356c-296,56 -245,107 -567,130l-467 -790c-192,145 -202,226 -318,461l314 690 -258 237c309,455 197,243 543,180 229,493 553,1021 819,1503 488,880 659,703 1422,367 -92,-732 -253,-320 -759,-346l-997 -1817z"/>
    <path class="fil1" d="M32575 72960l-546 60 -286 619c-50,52 -373,47 -447,139 -136,361 -62,250 227,388 -110,685 -1516,2730 -114,2888 559,63 61,42 301,-53l25 -362 -374 -223c4,-392 524,-1530 690,-2010 351,42 207,141 571,54l64 -336 -432 -196 321 -968z"/>
    <path class="fil1" d="M17144 61054c-500,-445 -646,-205 -1101,91 -238,-175 -63,-119 -309,-239l-268 123c63,287 57,165 137,455 -492,239 -1005,627 -1519,946 -830,515 -519,1108 -50,1406l289 -299c-95,-247 -124,-143 -145,-485 183,-147 1549,-1062 1787,-1117 150,236 109,233 312,350l263 -121c-43,-359 -39,-180 -216,-519l820 -591z"/>
    <path class="fil1" d="M29999 71903c-722,-3 -669,86 -883,682 -333,0 -358,-202 -516,184 90,271 23,100 254,311 -160,655 -931,1764 -842,2366 157,290 469,542 871,469l75 -352c-213,-183 -204,-108 -368,-311 87,-559 605,-1388 790,-1968l548 165 111 -390 -426 -218 386 -938z"/>
    <path class="fil1" d="M54305 74554c228,-136 253,-62 439,-234l-71 -333 -550 108c-108,-364 -200,-752 -373,-946 -199,188 -213,178 -366,402l205 714 -324 213 134 257c12,4 40,18 54,21 226,48 259,-174 411,307 272,864 365,1457 844,2076 237,7 349,25 585,-37 201,-53 273,-139 361,-224l-151 -358 -512 42c-200,-296 -618,-1578 -686,-2008z"/>
    <path class="fil1" d="M72270 59510l-359 -157 -239 382c-425,-118 -528,-344 -955,-428l24 590 606 321c-42,293 -247,370 38,517 382,196 121,-53 442,-219 359,208 681,394 1079,627 616,362 1644,901 1719,-338l-393 -111c-132,172 -116,192 -244,330 -283,-19 -1750,-860 -1918,-1058l200 -456z"/>
    <path class="fil1" d="M36843 74164l-561 144c-64,283 -153,510 -125,756l-451 -22 -49 288 316 233c-77,590 -274,1177 -393,1783 -156,786 146,1074 953,1026l13 -427 -444 -168c22,-663 314,-1518 437,-2119 102,7 267,42 316,42 251,3 119,-2 230,-60l44 -233c-218,-201 -160,-108 -472,-211l186 -1032z"/>
    <path class="fil1" d="M56200 42179c-11,-618 -528,-1729 -755,-2217 -187,-402 -780,-1689 -1175,-1933 21,336 663,3451 927,3656 164,128 849,472 1003,494z"/>
    <path class="fil1" d="M44411 34369c140,243 1020,1020 1270,1179 338,-44 2580,-1120 2865,-1318l-4135 139z"/>
    <path class="fil1" d="M21551 71587c385,-344 2546,-3202 2612,-3410l-362 -282c-276,146 -1092,1267 -1379,1637 -440,568 -924,1152 -1300,1686 150,252 192,279 429,369z"/>
    <path class="fil4" d="M45601 43714c1363,955 2457,1619 3881,2457 217,-360 311,-842 451,-1271 307,-944 1219,-3340 1323,-4019 -506,-286 -2282,-1439 -2627,-1558 -225,185 -906,1213 -1158,1570l-807 1054c-276,354 -936,1348 -1063,1767zm149 -44c616,-1247 2722,-3784 2850,-4202 393,126 892,515 1259,726 335,193 932,614 1260,729l-1680 5070c-524,-182 -3170,-1898 -3689,-2323z"/>
    <path class="fil1" d="M9970 56442c417,-60 3747,-1390 4042,-1599l-146 -462c-383,65 -3832,1458 -4025,1633l129 428z"/>
    <path class="fil4" d="M44672 44609c-138,62 -454,966 -1014,1623 -416,489 -1799,2233 -1857,2719 152,102 300,218 465,314 179,105 283,147 489,281 477,311 2773,1733 3003,1769l1836 -2475c400,-532 607,-902 970,-1405l270 -413c-535,-481 -4007,-2482 -4162,-2413zm1148 6421c-78,89 -57,64 -139,133 -231,-96 -250,-148 -465,-277l-1449 -874c-283,-159 -664,-387 -920,-555 -333,-219 -648,-374 -930,-601l1586 -2240c130,-146 94,-66 225,-240 466,-620 509,-643 827,-1347l174 -300c363,-11 3128,1841 3888,2282 -10,113 -100,152 -102,161 -409,896 -2113,3064 -2695,3858z"/>
    <path class="fil1" d="M56478 76571c10,-377 -386,-1167 -527,-1577 -352,-1025 -61,-941 601,-1216l-13 -465c-694,-87 -861,91 -1000,623 -168,-209 -15,-101 -240,-262l-353 127c24,286 940,2704 1136,2937l396 -167z"/>
    <path class="fil2" d="M42189 10057c415,-540 377,-1344 309,-2075 -41,-437 -149,-1837 -309,-2123 -595,717 -553,919 -403,1902 84,552 155,1947 403,2296z"/>
    <path class="fil4" d="M44654 42791l-3387 -2507c364,-902 2090,-1924 2996,-2527 333,-222 817,-652 1107,-777 397,261 738,538 1096,789 338,238 729,605 1087,769 -127,332 -1654,2479 -2059,3089 -164,248 -680,982 -840,1164zm901 -1026c356,-556 2044,-2912 2151,-3211 -321,-274 -2097,-1621 -2413,-1737l-1079 817c-198,143 -377,227 -564,353 -847,573 -2137,1421 -2561,2274l1316 1026c170,115 262,217 434,344l1833 1321c310,-314 417,-550 584,-806 78,-120 169,-243 299,-381z"/>
    <path class="fil2" d="M15762 23463c-222,-796 -804,-1106 -1409,-1533 -437,-308 -1411,-927 -1919,-1103 346,1182 457,1061 1374,1577 315,177 627,336 947,522 327,189 651,396 1007,537z"/>
    <path class="fil2" d="M28366 13319c387,-1166 -1458,-3858 -1588,-3921 -180,1433 -92,1115 510,2158 203,352 845,1530 1078,1763z"/>
    <path class="fil1" d="M47264 75954l-109 127c-236,-376 21,-308 -533,-284l96 667 256 2404 521 -21c-1,-485 -99,-1039 -160,-1523 -171,-1340 418,-1142 752,-1199 19,-3 54,4 68,-23 14,-27 45,-19 87,-27l28 -457c-22,-2 -49,-7 -65,-9l-205 -32c-436,-48 -587,27 -736,377z"/>
    <path class="fil2" d="M52431 55383c355,-274 276,-29 444,-382l-2074 -472 -989 1223c530,45 923,39 1437,-65 376,-76 823,-269 1182,-304z"/>
    <path class="fil1" d="M52480 40276l1263 714c-39,-499 -444,-1665 -623,-2273 -97,-326 -74,-562 -352,-757l-288 2316z"/>
    <path class="fil1" d="M74688 53297c628,186 2473,931 2961,937l134 -448c-652,-307 -2185,-810 -2930,-1013 -147,210 -158,279 -165,524z"/>
    <path class="fil1" d="M66253 67249c-121,-144 -82,-113 -245,-238 -238,93 -273,143 -387,327 131,228 1815,2144 2192,2252l250 -312c-105,-304 -287,-425 -499,-625l-1311 -1404z"/>
    <path class="fil1" d="M29698 76348c174,-215 1100,-2573 1128,-2938l-512 -108c-223,721 -976,2260 -1040,2901l424 145z"/>
    <path class="fil1" d="M14569 64599c238,-132 375,-258 623,-436 217,-156 418,-298 636,-454 230,-163 408,-290 631,-453 290,-212 395,-249 615,-510l-333 -358 -2490 1748c76,254 109,320 318,463z"/>
    <path class="fil2" d="M16216 16688l-18 529 -701 232 10 696 699 -168 87 -570c821,-253 737,-44 713,-926 -262,-33 -557,124 -790,207z"/>
    <path class="fil2" d="M58552 14950c87,239 254,481 370,645l490 -104 461 587 638 -224 -377 -680 -595 140c-87,-244 -156,-395 -359,-571l-628 207z"/>
    <path class="fil4" d="M39145 52547c326,-190 1685,-2237 1980,-2641 232,43 3213,1866 3576,2148 -326,464 -892,525 -1018,984l1241 -984c-300,-278 -3555,-2270 -3821,-2303 -231,274 -277,405 -475,664l-1483 2132z"/>
    <path class="fil2" d="M11297 22321l50 651 -585 215c16,325 15,423 160,670l608 -290 -15 -529 636 -394 -154 -677 -700 354z"/>
    <path class="fil2" d="M10957 34287l236 536 -482 387 340 564c190,-73 199,-54 418,-319 95,-115 16,-3 111,-159l-219 -475 525 -435c-83,-192 -86,-207 -180,-339l-241 -237c-203,153 -346,233 -508,477z"/>
    <polygon class="fil2" points="13928,27202 14038,27760 13463,28066 13686,28688 14272,28416 14213,27880 14807,27546 14578,26863 "/>
    <path class="fil4" d="M40948 47951c-418,-60 -643,-332 -942,-542l-1578 -1375c-189,-212 -618,-553 -860,-694 98,-515 478,-937 720,-1380 98,-180 163,-304 253,-444 177,-278 359,-601 526,-875 223,-362 372,-433 583,-730 169,-238 118,-159 330,-369 140,-139 190,-233 347,-375l2626 1976c293,225 615,414 856,687 -94,271 -2574,3853 -2861,4121zm-3540 -2647c732,544 2800,2825 3617,2769 822,-960 1836,-2567 2597,-3663 172,-253 321,-340 363,-685 -317,-146 -3200,-2434 -3658,-2734 -1605,1287 -2025,2744 -2919,4313z"/>
    <path class="fil2" d="M5512 36537c328,768 326,290 -161,911 59,221 192,392 373,542 253,-188 266,-204 428,-522 -92,-188 -132,-225 -200,-388 156,-228 286,-353 378,-621 -161,-250 -139,-256 -373,-467 -238,203 -287,311 -445,545z"/>
    <path class="fil2" d="M31578 8151l-708 -81 -243 529c213,148 420,140 710,155l207 -388 717 103 261 -636 -766 -100 -178 418z"/>
    <path class="fil2" d="M58316 9925c52,332 271,581 477,766 329,-61 466,-108 724,-300 -139,-292 -270,-410 -419,-678 -315,2 -504,69 -782,212z"/>
    <path class="fil2" d="M12070 31312c19,246 -1,204 93,415 132,300 199,287 233,317 213,-117 384,-315 552,-472 -35,-264 -116,-419 -319,-648 -265,138 -258,247 -559,388z"/>
    <polygon class="fil2" points="73898,22105 74638,22294 74682,21508 73930,21378 "/>
    <path class="fil1" d="M17279 61985c80,149 -36,228 316,445l419 -260c-61,-261 -140,-335 -256,-525l-479 340z"/>
    <path class="fil1" d="M31017 72900c150,-171 205,-325 225,-583l-478 -148 -192 558 445 173z"/>
    <path class="fil1" d="M73534 52825c177,159 337,207 599,222l132 -444 -555 -230 -176 452z"/>
    <path class="fil1" d="M65240 66894l313 -331c-100,-202 -121,-240 -398,-421 -217,127 -205,92 -360,360l445 392z"/>
    <path class="fil4" d="M37506 52535c-1,2 26,10 27,9 62,-15 268,-215 526,-536 694,-862 1834,-2493 2092,-2980 -7,-11 -2759,-2487 -3330,-2725 -374,1110 -1546,3563 -1429,4712 709,484 1416,1014 2114,1520zm-9 -137c-447,-400 -1753,-1156 -2032,-1450 -9,-269 52,-508 126,-794 312,-1196 714,-2580 1322,-3618 418,181 2569,2018 2922,2364 50,48 68,38 158,118 -89,264 -2234,3615 -2496,3380z"/>
    <path class="fil5" d="M78738 39097c34,-337 -52,-424 -239,-630 -140,189 -259,660 -266,938l505 -308z"/>
   </g>
   <g>
    <path class="fil6" d="M84969 42485l-902 0 0 0 -54 -2141 -161 -2112 -264 -2081 -366 -2047 -464 -2012 -561 -1973 -653 -1932 -745 -1888 -832 -1842 -919 -1793 -1001 -1741 -1082 -1687 -1159 -1630 -1234 -1571 -1308 -1509 -1376 -1444 -1445 -1377 -1508 -1307 -1571 -1235 -1631 -1159 -1687 -1082 -1741 -1001 -1793 -918 -1842 -833 -1888 -744 -1932 -654 -1973 -560 -2012 -465 -2047 -365 -2081 -265 -2112 -160 -2140 -54 0 -903 2185 55 2158 164 2126 271 2092 373 2056 475 2016 572 1974 668 1930 761 1882 851 1832 938 1779 1023 1723 1105 1666 1184 1605 1262 1541 1335 1476 1406 1406 1476 1336 1541 1261 1605 1184 1666 1105 1723 1023 1780 939 1832 850 1882 761 1929 668 1974 573 2016 474 2056 374 2092 270 2126 164 2158 55 2186 0 0zm-42484 42484l0 -902 0 0 2140 -55 2112 -160 2081 -265 2047 -365 2012 -464 1973 -561 1932 -653 1888 -745 1842 -833 1793 -918 1741 -1001 1687 -1082 1631 -1159 1571 -1234 1508 -1308 1445 -1376 1376 -1445 1308 -1509 1234 -1570 1159 -1631 1082 -1687 1001 -1741 919 -1793 832 -1842 745 -1888 653 -1932 561 -1973 464 -2012 366 -2047 264 -2081 161 -2112 54 -2140 902 0 -55 2185 -164 2158 -270 2126 -374 2092 -474 2056 -573 2016 -668 1974 -761 1930 -850 1882 -939 1832 -1023 1779 -1105 1723 -1184 1666 -1261 1605 -1336 1541 -1406 1476 -1476 1406 -1541 1336 -1605 1261 -1666 1184 -1723 1105 -1779 1023 -1832 939 -1882 850 -1930 761 -1974 668 -2016 573 -2056 474 -2092 374 -2126 270 -2158 164 -2185 55 0 0zm-42485 -42484l903 0 0 0 54 2140 160 2112 265 2081 365 2047 465 2012 560 1973 654 1932 744 1888 833 1842 918 1793 1001 1741 1082 1687 1159 1631 1235 1570 1307 1509 1377 1445 1444 1376 1509 1308 1571 1234 1630 1159 1687 1082 1741 1001 1793 918 1842 833 1888 745 1932 653 1973 561 2012 464 2047 365 2081 265 2112 160 2141 55 0 902 -2186 -55 -2158 -164 -2126 -270 -2092 -374 -2056 -474 -2016 -573 -1974 -668 -1929 -761 -1882 -850 -1832 -939 -1780 -1023 -1723 -1105 -1666 -1184 -1605 -1261 -1541 -1336 -1476 -1406 -1406 -1476 -1335 -1541 -1262 -1605 -1184 -1666 -1105 -1723 -1023 -1779 -938 -1832 -851 -1882 -761 -1930 -668 -1974 -572 -2016 -475 -2056 -373 -2092 -271 -2126 -164 -2158 -55 -2185 0 0zm42485 -42485l0 903 0 0 -2141 54 -2112 160 -2081 265 -2047 365 -2012 465 -1973 560 -1932 654 -1888 744 -1842 833 -1793 918 -1741 1001 -1687 1082 -1630 1159 -1571 1235 -1509 1307 -1444 1377 -1377 1444 -1307 1509 -1235 1571 -1159 1630 -1082 1687 -1001 1741 -918 1793 -833 1842 -744 1888 -654 1932 -560 1973 -465 2012 -365 2047 -265 2081 -160 2112 -54 2141 -903 0 55 -2186 164 -2158 271 -2126 373 -2092 475 -2056 572 -2016 668 -1974 761 -1929 851 -1882 938 -1832 1023 -1780 1105 -1723 1184 -1666 1262 -1605 1335 -1541 1406 -1476 1476 -1406 1541 -1335 1605 -1262 1666 -1184 1723 -1105 1780 -1023 1832 -938 1882 -851 1929 -761 1974 -668 2016 -572 2056 -475 2092 -373 2126 -271 2158 -164 2186 -55 0 0z"/>
   </g>
  </g>
 </g>
</svg>
